<?xml version="1.0" encoding="utf-8"?>
<!-- Generator: Adobe Illustrator 26.3.1, SVG Export Plug-In . SVG Version: 6.00 Build 0)  -->
<svg version="1.1" id="Layer_1" xmlns="http://www.w3.org/2000/svg" xmlns:xlink="http://www.w3.org/1999/xlink" x="0px" y="0px"
	 viewBox="0 0 144 144" style="enable-background:new 0 0 144 144;" xml:space="preserve">
<style type="text/css">
	.st0{fill-rule:evenodd;clip-rule:evenodd;fill:#FFFFFF;}
	.st1{fill:#FFFFFF;}
</style>
<g>
	<path class="st0" d="M108.19,48.9c0.36,0.68-0.09,1.64-0.06,2.5c0,0.98,8.18,0.27,12.33,0.47c3.12,0.15,6.34,0.08,10.89,0.2
		c0.34,0.01,0.95,0.07,1.3,0.06c1.2-0.02,3-0.09,4.44,0.54c-0.73,0.73-1.9,0.38-2.77,0.4c-1.01,0.02-2.02-0.2-2.97-0.2
		c-1.79,0-3.73,0.2-5.34,0c-2.03-0.24-4.06-0.02-6.1-0.04c-2.07-0.02-4.12,0.03-6.18,0.04c-2.24,0.01-6.12,0.09-6.48-0.84
		c-0.21-0.57-0.24-1.85-0.25-1.74c-0.97-0.02-1.02,0.85-1.39,1.39c-0.37,0.56-0.57,1.37-1.19,1.58c-0.58-0.88,0.22-1.81,0.59-2.38
		c-0.25-0.1-0.43-0.21-0.69-0.06c-0.58,0.33-1.25,1.26-1.82,1.51c-0.76,0.34-1.39,0.26-2.24,0.33c-0.29-0.17-0.63-0.3-0.59-0.79
		c-0.39,0-0.25,0.54-0.79,0.4c-0.5-0.02-0.77-0.29-0.79-0.79c-0.7-0.11-0.49,0.7-1.19,0.59c-0.77,0.05-0.72-0.73-0.99-1.19
		c-0.73,0.26-0.73,1.24-1.78,1.19c-0.34-0.15-0.36-0.43-0.2-0.99c-0.89,0.17-1.31,0.8-2.18,0.99c-0.4-0.56-0.35-0.81-0.2-1.58
		c-1.11,0.47-2.48,0.69-3.37,1.39c-0.43-0.17-0.7-0.49-0.59-1.19c0,0.02-2.08,0.48-2.29,0.53c-1.54,0.32-2.56-0.25-3.65-1.32
		c0.1,0.11-1.5,2.12-1.63,2.29c-0.23,0.31-1.8,3.45-2.53,2.66c-0.8-0.88,0.46-1.77,1.04-2.45c0.83-0.97,1.63-2.02,2.32-3.1
		c0.25-0.39,0.35-0.83,0.59-1.19c0.11-0.17,0.48-0.23,0.59-0.4c0.43-0.61,0.61-1.35,0.97-1.99c0.64-1.16,1.37-2.34,2.16-3.39
		c0.11-0.15,0.75,0.89,0.74,1.1c-0.06,0.87-0.8,1.54-1.34,2.16c-0.62,0.71-1.01,1.55-1.54,2.32c0.26-0.38,0.76-0.4,1.15-0.56
		c0.4-0.16,4.35-2.81,4.39-2.81c1.8,0.31-3.26,3.75-4.33,4.23c-0.31,0.14-1.36,0.25-1.41,0.72c-0.1,0.97,1.99,0.78,2.46,0.7
		c1.25-0.19,2.39-0.69,3.48-1.3c0.2-0.11,0.5-0.51,0.79-0.2c0.55,0.58-0.18,0.98-0.4,1.39c1.2,0.01,1.74-0.64,2.97-0.59
		c0,0.47,0.34,0.58,0.2,1.19c0.95-0.44,1.81-0.21,2.63-1.58c0.36,0.14,0.69-0.07,0.83,0.45c0.18,0.03,0.39,0.01,0.89-0.06
		c0.75,0.26-0.06,0.99,0.2,1.58c1.66-0.21,2.77-1.95,4.75-1.19c0.07,0.86-1.1,0.49-0.99,1.39c0.52,0.38,1.74,0.23,2.43-0.94
		c0.18-0.35-0.76-0.41-0.48-1c0.56-0.16,0.8,0.36,1.27,0.28c2.42-3.89,2.8-3.73,2.37-2.58c-0.32,0.87-1.27,2.39-1.2,2.6
		c0.15,0.45,2.38-4.23,3.13-3.97c0.36,0.78-1.03,2.6-1.18,3.43C107.42,48.97,107.88,48.57,108.19,48.9z"/>
	<path class="st0" d="M57.12,46.23c0.72,0.01,0.87,0.58,0.79,1.39C57.03,47.79,56.72,46.72,57.12,46.23z"/>
	<path class="st0" d="M34.55,50.78c0.24,0.33,1.71-1.66,2.57-1.39c0.68,0.98-0.57,1.47-0.79,2.18c1.23-0.31,2.25-0.54,3.36-1.19
		c1.4-0.82,2.7-1.37,3.95-2.44c0.44-0.38,3.38-2.98,3.97-2.51c0.29,0.23,0.82,0.45,0.59,0.99c-1.12,2.25-4.34,2.39-5.74,4.36
		c2.52-0.72,5-1.84,7.13-2.97c0.69-0.36,2.59-1.99,3.41-1.83c0.82,0.94-2.94,3.13-3.61,3.61c-0.43,0.31-1.27,0.74-1.58,1.39
		c1.1-0.44,2.41-0.72,3.56-1.19c1.08-0.43,2.17-1.63,3.17-0.79c0.15,1-0.9,0.81-1.19,1.39c0.6,0.07,1.35-0.48,2.18-0.79
		c0.85-0.32,1.84-0.47,2.57-0.79c0.33,0.33,0.43,0.89,0.79,1.19c1.16-0.14,1.28-0.13,2.38-0.2c0.8-0.08,0.61,0.84,1.19,0.99
		c1.33-0.32,2.42-0.88,4.16-0.79c0.69,0.04,0.75,0.7,1.39,0.79c2.68,0.11,5.25-0.95,7.52-0.59c0.36,0.06-0.41,0.76-0.54,0.8
		c-1.17,0.35-2.64,0.62-3.9,0.81c-1.15,0.18-2.32,0.2-3.48,0.17c-0.29-0.23-0.56-0.5-0.79-0.79c-2.29-0.11-3.44,0.91-5.34,1.19
		c-0.27-0.46-0.33-1.12-0.59-1.58c-2.36,0.02-3.15,1.6-5.54,1.58c-0.25-0.51-0.43-0.6-0.2-1.19c-1.03,0.29-1.7,0.94-2.97,0.99
		c-0.76,0.1-0.62-0.7-0.99-0.99c-1.81,0.3-2.9,1.33-4.95,1.39c-0.47-0.01-0.8-0.66-0.59-1.58c-1.3,0.68-2.83,1.13-4.35,1.58
		c-0.49-0.24-0.73-0.72-0.59-1.58c-0.49,0.24-1.05,0.51-1.58,0.79c-0.69,0.36-4.52,2.26-3.96-0.2c-1.8,1.77-1.49,0.39-2.55,0.91
		c-1.21,0.36-1.2,0.31-2.44,0.24c-3.93-0.22-7.97,0.11-11.84,0.04c-1.95-0.04-4.56,0.44-6.14-0.4c-0.92-0.49,0.46-0.58,0.55-0.62
		c0.25-0.1,0.53,0.01,0.78,0.05c1.99,0.33,4.01,0.15,6.01,0.02c3.08-0.19,6.09-0.07,9.17-0.06c1.01,0,2.1,0.06,3.09-0.18
		c0.8-0.2,1.28-1.6,2.12-2.29c1.11-0.91,2.34-1.68,3.85-1.86c0.36-0.04,0.77-0.03,0.96,0.58c0.15,0.53-0.46,0.17-0.71,0.17
		c-0.55,0.01-1.48,0.45-1.94,0.73C35.29,49.37,34.17,50.42,34.55,50.78z"/>
</g>
<g>
	<path class="st1" d="M34.83,81.26c-0.1,0.15-0.23,0.28-0.38,0.37c-0.15,0.1-0.32,0.17-0.5,0.21c-0.18,0.05-0.35,0.07-0.5,0.07
		h-2.31v-0.15c0.03,0,0.07,0,0.12-0.01c0.05-0.01,0.09-0.01,0.14-0.02c0.05-0.01,0.09-0.02,0.14-0.03c0.04-0.01,0.07-0.02,0.1-0.03
		c0.08-0.03,0.13-0.07,0.16-0.13c0.03-0.05,0.04-0.12,0.04-0.19v-3.38c0-0.07-0.01-0.14-0.04-0.2c-0.03-0.06-0.08-0.1-0.16-0.14
		c-0.07-0.03-0.15-0.06-0.24-0.08c-0.09-0.02-0.16-0.03-0.23-0.04v-0.15h2.27c0.12,0,0.26,0.01,0.41,0.04
		c0.15,0.03,0.29,0.08,0.43,0.15c0.13,0.07,0.24,0.16,0.33,0.28c0.09,0.12,0.13,0.26,0.13,0.44c0,0.19-0.03,0.34-0.09,0.47
		c-0.06,0.13-0.14,0.24-0.25,0.32c-0.1,0.09-0.23,0.16-0.37,0.21c-0.14,0.06-0.29,0.11-0.45,0.15v0.06
		c0.12,0.01,0.26,0.04,0.42,0.09c0.16,0.05,0.31,0.12,0.46,0.21c0.14,0.09,0.27,0.21,0.37,0.36s0.15,0.33,0.15,0.55
		C34.98,80.93,34.93,81.11,34.83,81.26z M33.86,78.01c-0.05-0.11-0.12-0.2-0.2-0.26c-0.08-0.07-0.17-0.11-0.28-0.14
		c-0.1-0.03-0.2-0.04-0.31-0.04c-0.06,0-0.14,0-0.26,0c-0.11,0-0.21,0.01-0.29,0.01v1.85h0.41c0.18,0,0.34-0.03,0.46-0.08
		c0.13-0.05,0.23-0.12,0.31-0.22c0.08-0.09,0.13-0.2,0.17-0.32c0.04-0.12,0.05-0.25,0.05-0.39C33.93,78.26,33.91,78.12,33.86,78.01z
		 M34.09,80.2c-0.05-0.12-0.11-0.22-0.2-0.31c-0.09-0.09-0.2-0.16-0.33-0.21c-0.13-0.05-0.28-0.08-0.46-0.08c-0.03,0-0.07,0-0.13,0
		c-0.05,0-0.1,0-0.16,0c-0.06,0-0.11,0-0.16,0.01c-0.05,0-0.09,0-0.12,0v1.7c0.02,0.15,0.08,0.25,0.18,0.31
		c0.1,0.06,0.25,0.09,0.45,0.09s0.36-0.03,0.49-0.1c0.13-0.07,0.23-0.16,0.31-0.27s0.13-0.23,0.16-0.37
		c0.03-0.14,0.04-0.27,0.04-0.4C34.16,80.45,34.14,80.32,34.09,80.2z"/>
	<path class="st1" d="M41.54,81.73c-0.14,0.17-0.36,0.26-0.65,0.26c-0.27,0-0.47-0.09-0.6-0.28c-0.13-0.19-0.22-0.47-0.27-0.84
		c-0.02-0.13-0.04-0.27-0.07-0.41c-0.03-0.14-0.08-0.26-0.14-0.38s-0.16-0.2-0.28-0.28c-0.12-0.07-0.27-0.11-0.46-0.11h-0.53v1.66
		c0,0.08,0.01,0.14,0.04,0.2c0.03,0.06,0.08,0.1,0.16,0.13c0.02,0.01,0.05,0.02,0.1,0.03c0.04,0.01,0.09,0.02,0.13,0.02
		c0.05,0.01,0.09,0.01,0.14,0.02c0.05,0,0.09,0.01,0.12,0.01v0.15h-2.07v-0.15c0.03,0,0.07,0,0.11-0.01c0.04,0,0.09-0.01,0.14-0.02
		c0.05-0.01,0.09-0.01,0.13-0.02s0.07-0.02,0.1-0.03c0.08-0.03,0.13-0.07,0.16-0.13c0.03-0.06,0.04-0.12,0.04-0.2v-3.4
		c0-0.07-0.01-0.14-0.04-0.2c-0.03-0.06-0.08-0.1-0.17-0.13c-0.06-0.02-0.14-0.04-0.24-0.06c-0.1-0.02-0.18-0.03-0.24-0.03v-0.15
		h2.32c0.17,0,0.34,0.02,0.5,0.06c0.17,0.04,0.32,0.1,0.46,0.18c0.14,0.08,0.25,0.19,0.33,0.32c0.08,0.13,0.13,0.28,0.13,0.47
		s-0.04,0.34-0.13,0.47c-0.08,0.13-0.19,0.24-0.31,0.33s-0.26,0.16-0.4,0.22c-0.14,0.06-0.27,0.1-0.39,0.13v0.07
		c0.08,0.01,0.17,0.03,0.27,0.05c0.1,0.03,0.2,0.07,0.3,0.12c0.1,0.06,0.19,0.13,0.26,0.21c0.08,0.08,0.13,0.19,0.17,0.31
		c0.05,0.19,0.09,0.36,0.12,0.52c0.03,0.16,0.07,0.33,0.11,0.49c0.02,0.08,0.04,0.13,0.07,0.18c0.03,0.04,0.06,0.07,0.09,0.09
		c0.03,0.02,0.06,0.03,0.09,0.04c0.03,0,0.06,0.01,0.09,0.01c0.09,0,0.17-0.05,0.24-0.15c0.07-0.1,0.1-0.26,0.1-0.49v-0.1h0.19v0.1
		C41.75,81.32,41.68,81.56,41.54,81.73z M40,78.07c-0.05-0.12-0.12-0.22-0.21-0.29c-0.09-0.07-0.19-0.12-0.31-0.16
		c-0.12-0.03-0.24-0.05-0.36-0.05h-0.59v1.94h0.41c0.15,0,0.29-0.02,0.42-0.05c0.14-0.03,0.26-0.08,0.36-0.16
		c0.1-0.08,0.19-0.17,0.25-0.3c0.06-0.12,0.09-0.28,0.09-0.47C40.08,78.35,40.05,78.19,40,78.07z"/>
	<path class="st1" d="M47.89,80.58c-0.11,0.3-0.28,0.56-0.53,0.8c-0.22,0.2-0.46,0.36-0.73,0.47c-0.27,0.11-0.58,0.17-0.92,0.17
		c-0.31,0-0.59-0.05-0.86-0.16c-0.27-0.11-0.51-0.26-0.73-0.47c-0.22-0.21-0.4-0.45-0.52-0.73s-0.19-0.6-0.19-0.97
		c0-0.73,0.21-1.3,0.64-1.73c0.23-0.23,0.48-0.4,0.77-0.52c0.29-0.12,0.59-0.17,0.91-0.17c0.31,0,0.61,0.05,0.89,0.16
		c0.28,0.11,0.54,0.28,0.8,0.53c0.2,0.2,0.35,0.44,0.47,0.73c0.11,0.29,0.17,0.6,0.17,0.92C48.05,79.96,48,80.28,47.89,80.58z
		 M47.17,78.84c-0.06-0.26-0.14-0.49-0.26-0.69c-0.12-0.2-0.28-0.36-0.47-0.49c-0.19-0.12-0.43-0.19-0.7-0.19
		c-0.23,0-0.45,0.05-0.63,0.15c-0.19,0.1-0.35,0.24-0.48,0.43c-0.13,0.19-0.23,0.41-0.3,0.68s-0.11,0.58-0.11,0.92
		c0,0.3,0.03,0.58,0.09,0.84c0.06,0.26,0.16,0.49,0.28,0.68c0.12,0.2,0.28,0.35,0.47,0.46c0.19,0.11,0.42,0.17,0.68,0.17
		c0.26,0,0.48-0.06,0.67-0.17c0.19-0.11,0.35-0.26,0.47-0.46C47,81,47.09,80.77,47.16,80.5s0.09-0.55,0.09-0.86
		C47.25,79.37,47.22,79.1,47.17,78.84z"/>
	<path class="st1" d="M54.37,80.58c-0.11,0.3-0.28,0.56-0.53,0.8c-0.22,0.2-0.46,0.36-0.73,0.47c-0.27,0.11-0.58,0.17-0.92,0.17
		c-0.31,0-0.59-0.05-0.86-0.16c-0.27-0.11-0.51-0.26-0.73-0.47c-0.22-0.21-0.4-0.45-0.52-0.73s-0.19-0.6-0.19-0.97
		c0-0.73,0.21-1.3,0.64-1.73c0.23-0.23,0.48-0.4,0.77-0.52c0.29-0.12,0.59-0.17,0.91-0.17c0.31,0,0.61,0.05,0.89,0.16
		c0.28,0.11,0.54,0.28,0.8,0.53c0.2,0.2,0.35,0.44,0.47,0.73c0.11,0.29,0.17,0.6,0.17,0.92C54.53,79.96,54.48,80.28,54.37,80.58z
		 M53.65,78.84c-0.06-0.26-0.14-0.49-0.26-0.69c-0.12-0.2-0.28-0.36-0.47-0.49c-0.19-0.12-0.43-0.19-0.7-0.19
		c-0.23,0-0.45,0.05-0.63,0.15c-0.19,0.1-0.35,0.24-0.48,0.43c-0.13,0.19-0.23,0.41-0.3,0.68s-0.11,0.58-0.11,0.92
		c0,0.3,0.03,0.58,0.09,0.84c0.06,0.26,0.16,0.49,0.28,0.68c0.12,0.2,0.28,0.35,0.47,0.46c0.19,0.11,0.42,0.17,0.68,0.17
		c0.26,0,0.48-0.06,0.67-0.17s0.35-0.26,0.47-0.46c0.12-0.19,0.22-0.43,0.28-0.69s0.09-0.55,0.09-0.86
		C53.73,79.37,53.7,79.1,53.65,78.84z"/>
	<path class="st1" d="M58.8,81.92v-0.15c0.07,0,0.14-0.01,0.21-0.02c0.08-0.01,0.15-0.02,0.21-0.04c0.06-0.02,0.12-0.05,0.16-0.09
		c0.04-0.04,0.06-0.09,0.06-0.15c0-0.04-0.03-0.1-0.09-0.19s-0.13-0.18-0.22-0.3c-0.09-0.11-0.19-0.23-0.31-0.35
		c-0.11-0.12-0.23-0.24-0.34-0.36c-0.11-0.12-0.22-0.23-0.33-0.33c-0.1-0.1-0.19-0.19-0.26-0.26H57.8v1.65
		c0,0.08,0.02,0.14,0.05,0.19c0.03,0.05,0.08,0.1,0.16,0.13c0.02,0.01,0.05,0.02,0.09,0.03c0.04,0.01,0.09,0.02,0.13,0.03
		c0.05,0.01,0.09,0.02,0.14,0.03s0.09,0.01,0.12,0.01v0.15h-2.05v-0.15c0.06,0,0.14-0.01,0.25-0.02c0.1-0.01,0.17-0.03,0.22-0.04
		c0.08-0.03,0.13-0.07,0.16-0.13c0.03-0.06,0.04-0.12,0.04-0.2v-3.4c0-0.07-0.01-0.14-0.04-0.19c-0.03-0.05-0.08-0.1-0.16-0.13
		c-0.06-0.02-0.13-0.05-0.23-0.07c-0.1-0.03-0.17-0.04-0.24-0.05v-0.15h2.05v0.15c-0.06,0-0.14,0.01-0.24,0.03
		c-0.1,0.02-0.18,0.03-0.24,0.06c-0.08,0.03-0.14,0.07-0.17,0.13c-0.03,0.06-0.04,0.12-0.04,0.2v1.63h0.07
		c0.22-0.17,0.43-0.35,0.63-0.53c0.2-0.18,0.38-0.35,0.53-0.51c0.15-0.16,0.28-0.31,0.37-0.44c0.09-0.13,0.14-0.24,0.14-0.32
		c0-0.05-0.02-0.09-0.07-0.12c-0.04-0.03-0.1-0.06-0.16-0.07c-0.06-0.02-0.12-0.03-0.18-0.04c-0.06-0.01-0.11-0.01-0.14-0.01v-0.15
		h1.88v0.15c-0.03,0-0.08,0-0.15,0.01c-0.07,0-0.15,0.02-0.24,0.04c-0.09,0.02-0.18,0.06-0.28,0.1c-0.1,0.05-0.18,0.11-0.26,0.2
		c-0.14,0.15-0.27,0.29-0.38,0.41c-0.11,0.13-0.22,0.25-0.33,0.36c-0.11,0.11-0.22,0.23-0.34,0.34c-0.12,0.11-0.25,0.23-0.4,0.35
		c0.17,0.18,0.33,0.34,0.48,0.5c0.15,0.15,0.29,0.31,0.43,0.45c0.14,0.15,0.27,0.3,0.41,0.45c0.13,0.15,0.27,0.31,0.41,0.49
		c0.06,0.08,0.14,0.15,0.23,0.24c0.09,0.08,0.2,0.15,0.33,0.21c0.06,0.03,0.14,0.05,0.24,0.06c0.1,0.02,0.18,0.03,0.24,0.03v0.15
		H58.8z"/>
	<path class="st1" d="M66.43,81.92h-3.79v-0.15c0.03,0,0.07,0,0.11-0.01c0.04,0,0.09-0.01,0.14-0.02c0.05-0.01,0.09-0.01,0.13-0.02
		c0.04-0.01,0.07-0.02,0.1-0.03c0.08-0.03,0.13-0.08,0.16-0.13c0.03-0.06,0.04-0.12,0.04-0.2v-3.38c0-0.08-0.01-0.14-0.04-0.2
		c-0.03-0.06-0.08-0.1-0.17-0.14c-0.06-0.03-0.14-0.05-0.24-0.08c-0.1-0.03-0.18-0.04-0.24-0.05v-0.15h2.07v0.15
		c-0.06,0-0.14,0.02-0.24,0.03c-0.1,0.02-0.18,0.04-0.24,0.06c-0.08,0.03-0.14,0.07-0.17,0.13c-0.03,0.06-0.04,0.13-0.04,0.2v3.17
		c0,0.14,0.01,0.25,0.02,0.34c0.02,0.08,0.05,0.14,0.1,0.18c0.05,0.04,0.13,0.07,0.24,0.08c0.1,0.01,0.25,0.02,0.43,0.02
		c0.1,0,0.2,0,0.3-0.01c0.1,0,0.2-0.01,0.29-0.03c0.09-0.01,0.17-0.03,0.24-0.05c0.07-0.02,0.12-0.05,0.16-0.09
		c0.04-0.04,0.1-0.11,0.16-0.19c0.06-0.08,0.12-0.17,0.17-0.26c0.06-0.09,0.11-0.18,0.15-0.27c0.05-0.09,0.08-0.16,0.1-0.22h0.16
		L66.43,81.92z"/>
	<path class="st1" d="M71.95,77.55c-0.04,0.01-0.07,0.02-0.11,0.04c-0.04,0.01-0.07,0.03-0.11,0.04c-0.04,0.01-0.06,0.03-0.08,0.04
		c-0.09,0.05-0.16,0.1-0.2,0.14c-0.04,0.05-0.1,0.11-0.17,0.2c-0.19,0.23-0.36,0.48-0.52,0.75c-0.16,0.28-0.34,0.59-0.54,0.94
		c-0.06,0.11-0.11,0.23-0.14,0.37s-0.06,0.26-0.06,0.37v0.88c0,0.08,0.02,0.14,0.05,0.2c0.03,0.06,0.08,0.1,0.16,0.14
		c0.02,0.01,0.05,0.02,0.1,0.03c0.05,0.01,0.1,0.02,0.16,0.04c0.06,0.01,0.11,0.02,0.16,0.03c0.05,0.01,0.1,0.01,0.13,0.01v0.15
		h-2.2v-0.15c0.03,0,0.07,0,0.12-0.01c0.05-0.01,0.1-0.01,0.16-0.02c0.06-0.01,0.11-0.01,0.16-0.02c0.05-0.01,0.08-0.02,0.11-0.03
		c0.08-0.03,0.13-0.07,0.16-0.13c0.03-0.06,0.04-0.12,0.04-0.2V80.2c0-0.07-0.02-0.14-0.05-0.22c-0.03-0.08-0.07-0.17-0.12-0.27
		c-0.16-0.3-0.3-0.58-0.45-0.85c-0.14-0.26-0.29-0.52-0.43-0.76c-0.06-0.1-0.12-0.19-0.19-0.26c-0.07-0.08-0.14-0.14-0.22-0.19
		c-0.06-0.04-0.13-0.06-0.21-0.08c-0.08-0.02-0.15-0.03-0.21-0.03v-0.15h2.14v0.15c-0.06,0-0.12,0.01-0.2,0.02
		c-0.08,0.01-0.15,0.02-0.22,0.04c-0.07,0.02-0.13,0.04-0.18,0.07c-0.05,0.03-0.07,0.06-0.07,0.1c0,0.02,0.03,0.09,0.08,0.2
		c0.05,0.11,0.12,0.25,0.22,0.42c0.09,0.17,0.2,0.37,0.33,0.6c0.12,0.23,0.26,0.47,0.4,0.73c0.16-0.24,0.3-0.47,0.44-0.69
		c0.13-0.21,0.25-0.4,0.35-0.57c0.1-0.17,0.17-0.3,0.23-0.41c0.06-0.11,0.08-0.17,0.08-0.2c0-0.05-0.02-0.1-0.07-0.14
		c-0.05-0.04-0.11-0.07-0.18-0.1c-0.07-0.02-0.15-0.04-0.23-0.06c-0.08-0.01-0.16-0.02-0.24-0.03v-0.15h1.73v0.15
		C72.02,77.53,71.99,77.54,71.95,77.55z"/>
	<path class="st1" d="M78.26,77.55c-0.06,0.01-0.12,0.03-0.18,0.04c-0.06,0.02-0.12,0.04-0.18,0.05c-0.05,0.02-0.1,0.04-0.12,0.05
		c-0.09,0.06-0.15,0.16-0.18,0.32c-0.03,0.16-0.04,0.35-0.04,0.57v3.38h-0.25l-2.98-3.75v2.43c0,0.25,0.02,0.45,0.06,0.6
		c0.04,0.15,0.09,0.25,0.17,0.31c0.03,0.02,0.07,0.05,0.14,0.07c0.06,0.02,0.13,0.05,0.2,0.07c0.07,0.02,0.14,0.04,0.2,0.05
		c0.06,0.02,0.11,0.02,0.14,0.02v0.15h-1.99v-0.15c0.03,0,0.08-0.01,0.14-0.02c0.06-0.02,0.12-0.03,0.19-0.05s0.13-0.04,0.18-0.06
		c0.06-0.02,0.09-0.04,0.11-0.05c0.08-0.06,0.14-0.16,0.17-0.3c0.03-0.14,0.05-0.35,0.05-0.61v-2.33c0-0.1-0.02-0.2-0.06-0.29
		s-0.09-0.18-0.16-0.23c-0.04-0.03-0.09-0.06-0.15-0.1c-0.06-0.03-0.13-0.06-0.2-0.09c-0.07-0.03-0.14-0.05-0.2-0.07
		c-0.06-0.02-0.12-0.03-0.16-0.03v-0.15h1.37l2.78,3.5v-2.25c0-0.24-0.02-0.44-0.06-0.59c-0.04-0.15-0.09-0.26-0.17-0.3
		c-0.03-0.02-0.08-0.04-0.14-0.06c-0.06-0.02-0.12-0.05-0.19-0.07c-0.07-0.02-0.13-0.04-0.2-0.05c-0.06-0.01-0.11-0.02-0.15-0.02
		v-0.15h1.98v0.15C78.36,77.53,78.32,77.54,78.26,77.55z"/>
	<path class="st1" d="M86.59,81.22c-0.1,0.15-0.23,0.28-0.38,0.4c-0.15,0.12-0.32,0.21-0.51,0.29s-0.42,0.11-0.67,0.11
		c-0.33,0-0.63-0.05-0.9-0.16c-0.27-0.11-0.5-0.26-0.69-0.47c-0.19-0.2-0.34-0.44-0.45-0.73c-0.11-0.28-0.16-0.6-0.16-0.96
		c0-0.34,0.06-0.66,0.18-0.95c0.12-0.29,0.28-0.55,0.49-0.76c0.21-0.21,0.46-0.38,0.74-0.51c0.29-0.12,0.59-0.19,0.93-0.19
		c0.09,0,0.19,0.01,0.29,0.03c0.1,0.02,0.19,0.05,0.28,0.08c0.09,0.03,0.17,0.07,0.25,0.12c0.08,0.04,0.14,0.09,0.19,0.13l0.2-0.34
		h0.27l0.03,1.64h-0.16c-0.06-0.19-0.14-0.37-0.22-0.55c-0.09-0.18-0.19-0.33-0.32-0.47c-0.13-0.14-0.27-0.25-0.44-0.33
		c-0.17-0.08-0.36-0.12-0.57-0.12c-0.17,0-0.33,0.04-0.49,0.13s-0.3,0.21-0.43,0.39c-0.12,0.18-0.22,0.4-0.3,0.67
		c-0.08,0.27-0.11,0.6-0.11,0.97c0,0.3,0.04,0.58,0.13,0.82c0.08,0.25,0.2,0.46,0.35,0.64c0.15,0.18,0.32,0.31,0.51,0.41
		c0.19,0.1,0.4,0.15,0.61,0.15c0.2,0,0.38-0.02,0.53-0.07c0.15-0.05,0.28-0.12,0.4-0.21c0.11-0.09,0.21-0.19,0.3-0.32
		c0.08-0.12,0.16-0.26,0.22-0.4l0.17,0.09C86.78,80.92,86.69,81.07,86.59,81.22z"/>
	<path class="st1" d="M90.91,81.92v-0.15c0.06,0,0.12-0.01,0.2-0.02c0.08-0.01,0.15-0.03,0.22-0.05c0.07-0.02,0.13-0.05,0.18-0.08
		c0.05-0.03,0.07-0.07,0.07-0.11c0-0.05-0.01-0.1-0.03-0.15l-0.41-1.05h-1.63c-0.06,0.15-0.11,0.29-0.16,0.4
		c-0.04,0.11-0.08,0.22-0.11,0.32c-0.05,0.15-0.07,0.28-0.07,0.37c0,0.06,0.03,0.11,0.08,0.16c0.06,0.04,0.12,0.08,0.2,0.11
		c0.08,0.03,0.16,0.05,0.25,0.07c0.09,0.02,0.16,0.03,0.22,0.03v0.15H88.1v-0.15c0.06,0,0.14-0.02,0.23-0.04
		c0.09-0.02,0.17-0.05,0.23-0.09c0.08-0.05,0.15-0.12,0.21-0.21c0.06-0.09,0.12-0.19,0.17-0.31c0.12-0.28,0.24-0.58,0.37-0.9
		c0.13-0.32,0.25-0.64,0.38-0.96c0.13-0.33,0.26-0.65,0.39-0.98c0.13-0.33,0.26-0.65,0.39-0.97h0.25c0.17,0.43,0.33,0.85,0.49,1.26
		c0.16,0.41,0.31,0.8,0.45,1.15c0.14,0.36,0.26,0.67,0.37,0.95c0.11,0.28,0.19,0.49,0.26,0.65c0.03,0.07,0.06,0.13,0.1,0.18
		c0.04,0.05,0.1,0.1,0.18,0.15c0.06,0.04,0.13,0.06,0.22,0.08c0.08,0.02,0.16,0.03,0.22,0.04v0.15H90.91z M90.32,78.24l-0.72,1.85
		h1.46L90.32,78.24z"/>
	<path class="st1" d="M99.29,77.55c-0.06,0.01-0.12,0.03-0.18,0.04c-0.06,0.02-0.12,0.04-0.18,0.05c-0.06,0.02-0.1,0.04-0.12,0.05
		c-0.09,0.06-0.15,0.16-0.18,0.32c-0.03,0.16-0.04,0.35-0.04,0.57v3.38h-0.25l-2.98-3.75v2.43c0,0.25,0.02,0.45,0.06,0.6
		c0.04,0.15,0.09,0.25,0.17,0.31c0.03,0.02,0.07,0.05,0.14,0.07c0.06,0.02,0.13,0.05,0.2,0.07c0.07,0.02,0.14,0.04,0.2,0.05
		c0.06,0.02,0.11,0.02,0.14,0.02v0.15h-1.99v-0.15c0.03,0,0.08-0.01,0.14-0.02c0.06-0.02,0.12-0.03,0.19-0.05
		c0.07-0.02,0.13-0.04,0.18-0.06c0.06-0.02,0.09-0.04,0.11-0.05c0.08-0.06,0.14-0.16,0.17-0.3c0.03-0.14,0.05-0.35,0.05-0.61v-2.33
		c0-0.1-0.02-0.2-0.06-0.29c-0.04-0.1-0.09-0.18-0.16-0.23c-0.04-0.03-0.09-0.06-0.15-0.1c-0.06-0.03-0.13-0.06-0.2-0.09
		c-0.07-0.03-0.14-0.05-0.2-0.07c-0.06-0.02-0.12-0.03-0.16-0.03v-0.15h1.37l2.78,3.5v-2.25c0-0.24-0.02-0.44-0.06-0.59
		c-0.04-0.15-0.09-0.26-0.17-0.3c-0.03-0.02-0.08-0.04-0.14-0.06c-0.06-0.02-0.12-0.05-0.19-0.07c-0.07-0.02-0.13-0.04-0.2-0.05
		c-0.06-0.01-0.11-0.02-0.15-0.02v-0.15h1.98v0.15C99.39,77.53,99.35,77.54,99.29,77.55z"/>
	<path class="st1" d="M105.42,80.68c-0.15,0.28-0.35,0.52-0.6,0.7c-0.25,0.18-0.52,0.32-0.84,0.41c-0.31,0.09-0.63,0.13-0.95,0.13
		h-2.03v-0.15c0.03,0,0.07,0,0.12-0.01c0.05,0,0.1-0.01,0.14-0.02c0.05-0.01,0.09-0.01,0.13-0.02c0.04-0.01,0.07-0.01,0.1-0.02
		c0.08-0.03,0.13-0.07,0.16-0.13c0.03-0.06,0.04-0.12,0.04-0.2v-3.4c0-0.07-0.01-0.14-0.04-0.2c-0.03-0.06-0.08-0.1-0.16-0.14
		c-0.08-0.04-0.16-0.06-0.25-0.08c-0.08-0.02-0.16-0.03-0.22-0.03v-0.15h2.14c0.15,0,0.32,0.01,0.5,0.04
		c0.18,0.03,0.36,0.08,0.55,0.15c0.18,0.07,0.36,0.16,0.53,0.28c0.17,0.12,0.33,0.26,0.46,0.43c0.13,0.17,0.24,0.37,0.32,0.6
		c0.08,0.23,0.12,0.5,0.12,0.8C105.65,80.06,105.57,80.4,105.42,80.68z M104.7,78.84c-0.09-0.26-0.21-0.48-0.37-0.67
		c-0.16-0.19-0.35-0.33-0.58-0.44c-0.23-0.11-0.48-0.16-0.76-0.16c-0.04,0-0.09,0-0.14,0c-0.05,0-0.1,0-0.15,0
		c-0.05,0-0.11,0-0.16,0.01c-0.05,0-0.09,0-0.13,0v3.62c0.02,0.16,0.08,0.29,0.19,0.38c0.1,0.09,0.28,0.13,0.54,0.13
		c0.29,0,0.55-0.05,0.76-0.15s0.39-0.24,0.53-0.42c0.14-0.18,0.24-0.4,0.31-0.65c0.07-0.25,0.1-0.52,0.1-0.82
		C104.83,79.37,104.79,79.09,104.7,78.84z"/>
	<path class="st1" d="M111.31,81.92h-3.79v-0.15c0.03,0,0.07,0,0.11-0.01c0.04,0,0.09-0.01,0.14-0.02c0.05-0.01,0.09-0.01,0.13-0.02
		c0.04-0.01,0.07-0.02,0.1-0.03c0.08-0.03,0.13-0.08,0.16-0.13c0.03-0.06,0.04-0.12,0.04-0.2v-3.38c0-0.08-0.01-0.14-0.04-0.2
		c-0.03-0.06-0.08-0.1-0.17-0.14c-0.06-0.03-0.14-0.05-0.24-0.08c-0.1-0.03-0.18-0.04-0.24-0.05v-0.15h2.07v0.15
		c-0.06,0-0.14,0.02-0.24,0.03c-0.1,0.02-0.18,0.04-0.24,0.06c-0.08,0.03-0.14,0.07-0.17,0.13c-0.03,0.06-0.04,0.13-0.04,0.2v3.17
		c0,0.14,0.01,0.25,0.02,0.34c0.02,0.08,0.05,0.14,0.1,0.18c0.05,0.04,0.13,0.07,0.24,0.08c0.1,0.01,0.25,0.02,0.43,0.02
		c0.1,0,0.2,0,0.3-0.01c0.1,0,0.19-0.01,0.29-0.03c0.09-0.01,0.17-0.03,0.24-0.05c0.07-0.02,0.12-0.05,0.16-0.09
		c0.04-0.04,0.1-0.11,0.16-0.19c0.06-0.08,0.12-0.17,0.17-0.26c0.06-0.09,0.11-0.18,0.15-0.27c0.05-0.09,0.08-0.16,0.1-0.22h0.16
		L111.31,81.92z"/>
	<path class="st1" d="M116.91,81.92h-3.93v-0.15c0.03,0,0.07,0,0.12-0.01c0.05-0.01,0.1-0.01,0.15-0.02
		c0.05-0.01,0.1-0.01,0.15-0.02c0.05-0.01,0.08-0.02,0.11-0.03c0.08-0.03,0.13-0.07,0.16-0.13c0.03-0.06,0.04-0.12,0.04-0.2v-3.4
		c0-0.08-0.01-0.14-0.04-0.19c-0.03-0.05-0.08-0.1-0.17-0.13c-0.03-0.01-0.07-0.03-0.12-0.04c-0.05-0.01-0.1-0.03-0.15-0.04
		c-0.05-0.01-0.1-0.02-0.14-0.03c-0.05-0.01-0.08-0.01-0.12-0.01v-0.15h3.66v1.03h-0.18c-0.02-0.07-0.05-0.15-0.1-0.25
		c-0.05-0.09-0.11-0.18-0.18-0.26c-0.07-0.08-0.14-0.15-0.21-0.21c-0.08-0.06-0.15-0.09-0.22-0.1c-0.08-0.01-0.17-0.02-0.26-0.02
		c-0.09,0-0.19-0.01-0.3-0.01h-0.79v1.91H115c0.19,0,0.32-0.02,0.39-0.07c0.07-0.05,0.13-0.09,0.17-0.13
		c0.03-0.03,0.05-0.06,0.07-0.11c0.02-0.05,0.04-0.1,0.06-0.16c0.02-0.06,0.03-0.12,0.05-0.18c0.01-0.06,0.02-0.11,0.03-0.16h0.18
		v1.85h-0.18c0-0.05-0.01-0.11-0.03-0.17c-0.01-0.06-0.03-0.13-0.05-0.19c-0.02-0.06-0.04-0.12-0.07-0.17
		c-0.02-0.05-0.05-0.09-0.06-0.11c-0.02-0.02-0.05-0.05-0.07-0.07c-0.03-0.02-0.06-0.05-0.1-0.07c-0.04-0.02-0.1-0.04-0.16-0.05
		c-0.06-0.01-0.14-0.02-0.23-0.02h-0.58v1.46c0,0.14,0.01,0.25,0.03,0.33s0.06,0.14,0.11,0.18c0.06,0.04,0.13,0.07,0.24,0.08
		c0.1,0.01,0.24,0.02,0.41,0.02c0.12,0,0.23,0,0.34,0c0.11,0,0.22,0,0.32-0.01c0.1-0.01,0.18-0.02,0.26-0.05
		c0.08-0.02,0.13-0.05,0.17-0.09c0.05-0.05,0.1-0.12,0.16-0.21c0.06-0.08,0.11-0.17,0.16-0.26c0.05-0.09,0.09-0.18,0.13-0.26
		c0.04-0.08,0.07-0.15,0.09-0.2H117L116.91,81.92z"/>
	<path class="st1" d="M66.31,88.04l-0.27,0.21c-0.07-0.07-0.13-0.13-0.19-0.16c-0.06-0.04-0.14-0.05-0.25-0.05
		c-0.12,0-0.21,0.03-0.29,0.08c-0.07,0.05-0.11,0.12-0.11,0.21c0,0.07,0.03,0.14,0.1,0.19c0.06,0.06,0.17,0.12,0.33,0.18
		c0.15,0.07,0.27,0.13,0.36,0.18c0.09,0.06,0.16,0.12,0.21,0.19s0.1,0.14,0.12,0.22c0.03,0.08,0.04,0.16,0.04,0.24
		c0,0.2-0.07,0.37-0.22,0.51c-0.14,0.14-0.32,0.21-0.53,0.21c-0.2,0-0.38-0.05-0.53-0.16c-0.15-0.11-0.27-0.27-0.35-0.49l0.33-0.09
		c0.12,0.27,0.3,0.4,0.55,0.4c0.12,0,0.22-0.04,0.3-0.11c0.08-0.07,0.12-0.16,0.12-0.27c0-0.07-0.02-0.13-0.06-0.2
		c-0.04-0.07-0.09-0.12-0.15-0.16s-0.16-0.09-0.29-0.15c-0.13-0.05-0.24-0.11-0.31-0.15c-0.07-0.05-0.13-0.1-0.19-0.16
		c-0.05-0.06-0.09-0.13-0.12-0.19c-0.02-0.06-0.04-0.13-0.04-0.2c0-0.17,0.07-0.32,0.21-0.44c0.14-0.12,0.31-0.18,0.5-0.18
		c0.13,0,0.26,0.03,0.4,0.08C66.11,87.84,66.22,87.93,66.31,88.04z"/>
	<path class="st1" d="M67.97,87.77h1.47v0.33h-0.57v2.07h-0.32V88.1h-0.57V87.77z"/>
	<path class="st1" d="M71.14,87.78h0.33v1.47c0,0.22,0.05,0.39,0.16,0.51c0.1,0.12,0.25,0.18,0.44,0.18c0.19,0,0.34-0.05,0.44-0.16
		c0.11-0.11,0.16-0.26,0.16-0.46v-1.53H73v1.51c0,0.29-0.08,0.53-0.25,0.7c-0.17,0.18-0.39,0.26-0.67,0.26
		c-0.28,0-0.51-0.09-0.68-0.27c-0.17-0.18-0.26-0.44-0.26-0.79V87.78z"/>
	<path class="st1" d="M74.83,87.77h0.58c0.46,0,0.8,0.12,1.03,0.36s0.34,0.52,0.34,0.83c0,0.31-0.12,0.59-0.35,0.83
		c-0.23,0.24-0.57,0.36-1.01,0.36h-0.59V87.77z M75.16,88.09v1.75h0.02c0.24,0,0.43-0.01,0.55-0.03c0.12-0.02,0.24-0.07,0.35-0.14
		s0.2-0.17,0.26-0.29c0.07-0.12,0.1-0.26,0.1-0.4c0-0.18-0.05-0.35-0.16-0.5c-0.1-0.15-0.23-0.25-0.37-0.3
		c-0.14-0.05-0.34-0.08-0.58-0.08H75.16z"/>
	<path class="st1" d="M78.5,87.77h0.32v2.4H78.5V87.77z"/>
	<path class="st1" d="M80.6,88.96c0-0.35,0.13-0.64,0.39-0.89c0.26-0.25,0.57-0.37,0.94-0.37c0.36,0,0.67,0.12,0.92,0.37
		c0.26,0.25,0.39,0.54,0.39,0.89c0,0.36-0.13,0.67-0.38,0.92c-0.26,0.25-0.57,0.37-0.94,0.37c-0.37,0-0.68-0.13-0.93-0.38
		C80.72,89.62,80.6,89.32,80.6,88.96z M82.89,88.97c0-0.26-0.1-0.49-0.29-0.67c-0.19-0.18-0.43-0.27-0.7-0.27
		c-0.26,0-0.49,0.09-0.68,0.28c-0.19,0.18-0.28,0.41-0.28,0.66c0,0.26,0.1,0.48,0.29,0.66c0.19,0.18,0.43,0.27,0.71,0.27
		c0.26,0,0.48-0.09,0.67-0.28C82.8,89.45,82.89,89.23,82.89,88.97z"/>
</g>
<g>
	<path class="st1" d="M74.31,66.71l-0.85-1.26l-0.86,1.26h-1.09l1.33-1.92l-1.25-1.82h1.1l0.77,1.15l0.77-1.15h1.1l-1.25,1.82
		l1.33,1.92H74.31z"/>
</g>
</svg>
